<svg xmlns="http://www.w3.org/2000/svg" width="45" height="45" version="1.0" viewBox="0 0 33.75 33.75"><defs><clipPath id="b"><path d="M0 0h33.5v33.5H0Zm0 0"/></clipPath><clipPath id="c"><path d="M.883.57h32.015V29H.883Zm0 0"/></clipPath><clipPath id="d"><path d="M7 10h20v22.586H7Zm0 0"/></clipPath><clipPath id="e"><path d="M6 10h21v22.586H6Zm0 0"/></clipPath><clipPath id="f"><path d="M12 27h9v5.586h-9Zm0 0"/></clipPath><clipPath id="i"><path d="M.625 1h8.102v2.305H.625Zm0 0"/></clipPath><clipPath id="h"><path d="M0 0h9v4H0z"/></clipPath><clipPath id="l"><path d="M.77 1h3.57v8.3H.77Zm0 0"/></clipPath><clipPath id="k"><path d="M0 0h5v10H0z"/></clipPath><clipPath id="o"><path d="M.012 1h3.812v8.3H.012Zm0 0"/></clipPath><clipPath id="n"><path d="M0 0h4v10H0z"/></clipPath><clipPath id="r"><path d="M.77.246h14.054V10H.77Zm0 0"/></clipPath><clipPath id="q"><path d="M0 0h15v11H0z"/></clipPath><clipPath id="u"><path d="M.723.574h5.48V7.72H.723Zm0 0"/></clipPath><clipPath id="t"><path d="M0 0h7v8H0z"/></clipPath><clipPath id="x"><path d="M.676.625H3v6.672H.676Zm0 0"/></clipPath><clipPath id="w"><path d="M0 0h4v8H0z"/></clipPath><clipPath id="A"><path d="M.82.29h9.532v3.573H.82Zm0 0"/></clipPath><clipPath id="z"><path d="M0 0h11v4H0z"/></clipPath><clipPath id="D"><path d="M.004.29H9.77v3.573H.004Zm0 0"/></clipPath><clipPath id="C"><path d="M0 0h10v4H0z"/></clipPath><clipPath id="G"><path d="M.195.719h21.203V7.39H.195Zm0 0"/></clipPath><clipPath id="F"><path d="M0 0h22v8H0z"/></clipPath><clipPath id="H"><path d="M11 .57h12V7H11Zm0 0"/></clipPath><clipPath id="I"><path d="M10 .57h13V7H10Zm0 0"/></clipPath><clipPath id="L"><path d="M.195.86h11.2v3.812H.195Zm0 0"/></clipPath><clipPath id="K"><path d="M0 0h12v5H0z"/></clipPath><clipPath id="O"><path d="M.578 3H2v1H.578Zm0 0"/></clipPath><clipPath id="P"><path d="M2 8h2v1.73H2Zm0 0"/></clipPath><clipPath id="Q"><path d="M.578 1H2v2H.578Zm0 0"/></clipPath><clipPath id="R"><path d="M17 .676h.73V2H17Zm0 0"/></clipPath><clipPath id="S"><path d="M17 4h.73v1H17Zm0 0"/></clipPath><clipPath id="N"><path d="M0 0h18v10H0z"/></clipPath><mask id="g"><g filter="url(#a)"><path fill-opacity=".3" d="M-3.375-3.375h40.5v40.5h-40.5z"/></g></mask><mask id="j"><g filter="url(#a)"><path fill-opacity=".3" d="M-3.375-3.375h40.5v40.5h-40.5z"/></g></mask><mask id="m"><g filter="url(#a)"><path fill-opacity=".3" d="M-3.375-3.375h40.5v40.5h-40.5z"/></g></mask><mask id="p"><g filter="url(#a)"><path fill-opacity=".3" d="M-3.375-3.375h40.5v40.5h-40.5z"/></g></mask><mask id="s"><g filter="url(#a)"><path fill-opacity=".3" d="M-3.375-3.375h40.5v40.5h-40.5z"/></g></mask><mask id="v"><g filter="url(#a)"><path fill-opacity=".3" d="M-3.375-3.375h40.5v40.5h-40.5z"/></g></mask><mask id="y"><g filter="url(#a)"><path fill-opacity=".3" d="M-3.375-3.375h40.5v40.5h-40.5z"/></g></mask><mask id="B"><g filter="url(#a)"><path fill-opacity=".3" d="M-3.375-3.375h40.5v40.5h-40.5z"/></g></mask><mask id="E"><g filter="url(#a)"><path fill-opacity=".3" d="M-3.375-3.375h40.5v40.5h-40.5z"/></g></mask><mask id="J"><g filter="url(#a)"><path fill-opacity=".3" d="M-3.375-3.375h40.5v40.5h-40.5z"/></g></mask><mask id="M"><g filter="url(#a)"><path fill-opacity=".3" d="M-3.375-3.375h40.5v40.5h-40.5z"/></g></mask><filter id="a" width="100%" height="100%" x="0%" y="0%"><feColorMatrix color-interpolation-filters="sRGB" values="0 0 0 0 1 0 0 0 0 1 0 0 0 0 1 0 0 0 1 0"/></filter></defs><g fill="#fff" clip-path="url(#b)"><path d="M0 0h33.5v33.5H0Zm0 0"/><path d="M0 0h33.5v33.5H0Zm0 0"/></g><g clip-path="url(#c)"><path fill="#fff" d="M32.598 12.719a15.722 15.722 0 0 1-.305 3.09 15.5 15.5 0 0 1-.898 2.972q-.3.72-.668 1.407A15.176 15.176 0 0 1 29 22.77q-.492.602-1.043 1.152t-1.152 1.047a16 16 0 0 1-2.582 1.726q-.686.364-1.407.664c-.48.2-.968.371-1.464.524a15.5 15.5 0 0 1-3.047.605q-.774.077-1.555.078-.779 0-1.55-.078a15.5 15.5 0 0 1-3.048-.605 16 16 0 0 1-4.207-1.988Q7.3 25.46 6.7 24.969c-.402-.332-.789-.68-1.152-1.047-.367-.367-.719-.75-1.047-1.152a16 16 0 0 1-.926-1.247q-.432-.65-.8-1.335a17 17 0 0 1-.665-1.407c-.199-.48-.37-.968-.523-1.465A15.5 15.5 0 0 1 .98 14.27a16 16 0 0 1-.078-1.551q.002-.781.078-1.555a15.7 15.7 0 0 1 1.13-4.512q.3-.72.663-1.406.369-.686.801-1.332a15.4 15.4 0 0 1 1.973-2.402c.363-.367.75-.715 1.152-1.047a15.443 15.443 0 0 1 2.582-1.723 15.4 15.4 0 0 1 2.871-1.191q.745-.225 1.508-.38.761-.15 1.54-.226.771-.076 1.55-.078.781.001 1.555.078a15.7 15.7 0 0 1 5.918 1.797q.686.363 1.332.797c.433.29.847.598 1.25.926q.602.497 1.152 1.047T29 2.664q.497.598.93 1.25c.285.43.554.875.797 1.332a15.4 15.4 0 0 1 1.191 2.871c.148.496.277 1 .375 1.508q.154.763.23 1.54.076.773.075 1.554m0 0"/></g><g clip-path="url(#d)"><path fill="#fff" d="M21.277 28.754q-.195.21-.402.426l-.41.406q-.104.104-.215.207c-.14.137-.29.273-.441.41q-.095.087-.2.18c-.05.047-.101.09-.156.14q-.083.074-.172.149l-.062.055c-.059.046-.117.097-.176.144l-.188.16-.234.188c-.137.113-.281.222-.426.336l-.215.156c-.043.035-.09.07-.132.105l-.207.153q-.142.105-.29.21l-.331.235-.27.18a26.5 26.5 0 0 1-4.121-3.414 21.3 21.3 0 0 1-2.238-2.688c-4.258-6.094-3.043-11.625-3.043-11.625l4.816-2.23 4.586-2.121 9.402 4.351s1.54 6.98-4.875 13.887m0 0"/></g><path fill="#131a44" d="m24.313 23.898.812 1.73s2.453-6.64 1.148-11.077c-.93 6.336-1.96 9.347-1.96 9.347M9.191 23.898l-.816 1.73s-2.45-6.64-1.148-11.077c.93 6.336 1.964 9.347 1.964 9.347m0 0"/><g clip-path="url(#e)"><path fill="#131a44" d="M16.75 32.93a.33.33 0 0 1-.187-.059 27.2 27.2 0 0 1-4.172-3.46c-3.614-3.7-4.88-7.466-5.309-9.974-.465-2.726-.074-4.566-.059-4.64a.32.32 0 0 1 .18-.23l9.406-4.356a.34.34 0 0 1 .278 0l9.402 4.355c.102.047.16.125.184.23.015.075.406 1.915-.059 4.645-.43 2.508-1.7 6.274-5.309 9.97a27.3 27.3 0 0 1-4.175 3.46.3.3 0 0 1-.18.059M7.645 15.098c-.082.492-.274 2.093.097 4.261.414 2.407 1.645 6.024 5.125 9.586a26.4 26.4 0 0 0 3.883 3.25 26.6 26.6 0 0 0 3.883-3.25c3.48-3.562 4.707-7.18 5.125-9.586.375-2.168.18-3.77.097-4.261l-9.105-4.22Zm13.23 14.082"/></g><path fill="#2ccab1" d="M13.297 23.02a4.4 4.4 0 0 1-.492 1.07c-.414.691-1.153 1.605-2.414 2.402-4.258-6.094-3.043-11.625-3.043-11.625l4.816-2.23c.149.629.32 1.953.484 3.453.34 3.094.649 6.93.649 6.93m0 0"/><path fill="#131a44" d="M10.39 26.824a.31.31 0 0 1-.269-.14c-2.242-3.204-2.965-6.254-3.18-8.25-.23-2.172.07-3.575.082-3.633a.31.31 0 0 1 .18-.23l4.824-2.235a.32.32 0 0 1 .286.004.3.3 0 0 1 .175.223c.453 1.921 1.11 10.082 1.14 10.43 0 .038 0 .073-.01.109-.02.085-.556 2.101-3.052 3.671a.3.3 0 0 1-.175.051M7.646 15.098c-.07.414-.22 1.629-.04 3.293.204 1.855.868 4.668 2.875 7.644 1.84-1.262 2.387-2.765 2.48-3.05-.062-.723-.62-7.544-1.038-9.864Zm0 0"/><path fill="#2ccab1" d="M20.207 23.02s.492 1.953 2.906 3.472c4.258-6.094 3.04-11.625 3.04-11.625l-4.817-2.23c-.45 1.922-1.129 10.383-1.129 10.383m0 0"/><path fill="#131a44" d="M23.113 26.824a.3.3 0 0 1-.183-.05c-2.492-1.57-3.028-3.587-3.047-3.669a.3.3 0 0 1-.012-.109c.027-.348.688-8.508 1.137-10.433a.33.33 0 0 1 .183-.223.33.33 0 0 1 .286 0l4.816 2.23a.31.31 0 0 1 .18.23c.015.06.316 1.466.082 3.637-.211 1.997-.934 5.047-3.176 8.25a.32.32 0 0 1-.266.137m-2.57-3.84c.09.286.64 1.79 2.48 3.051 3.528-5.234 2.985-10.02 2.836-10.937l-4.28-1.98c-.415 2.323-.977 9.144-1.036 9.866m-.336.036"/><g clip-path="url(#f)"><path fill="#131a44" d="M20.875 29.18a27 27 0 0 1-4.125 3.418q-2.233-1.501-4.121-3.418a6.7 6.7 0 0 1 1.937-1.07 6.6 6.6 0 0 1 2.184-.368 6.6 6.6 0 0 1 4.125 1.438m0 0"/></g><g mask="url(#g)"><g clip-path="url(#h)" transform="translate(12 26)"><g clip-path="url(#i)"><path fill="#131a44" d="M4.75 1.742a6.4 6.4 0 0 1 3.96 1.313C7.57 1.777 6.21 1.03 4.75 1.03S1.93 1.777.79 3.055a6.42 6.42 0 0 1 3.96-1.313m0 0"/></g></g></g><g mask="url(#j)"><g clip-path="url(#k)" transform="translate(9 15)"><g clip-path="url(#l)"><path fill="#131a44" d="M4.297 8.02a4.4 4.4 0 0 1-.492 1.07c-2.774-2.805-3-7.504-3-7.504l2.843-.496c.34 3.094.649 6.93.649 6.93m0 0"/></g></g></g><g mask="url(#m)"><g clip-path="url(#n)" transform="translate(20 15)"><g clip-path="url(#o)"><path fill="#131a44" d="M.207 8.02c.117.378.277.738.488 1.07C3.473 6.285 3.7 1.586 3.7 1.586L.855 1.09C.515 4.184.207 8.02.207 8.02m0 0"/></g></g></g><path fill="#2ccab1" d="m16.75 14.309-6.887 1.203s.32 6.715 4.934 8.883q.927.438 1.953.437 1.027 0 1.953-.437c4.617-2.172 4.934-8.883 4.934-8.883Zm0 0"/><g mask="url(#p)"><g clip-path="url(#q)" transform="translate(9 15)"><g clip-path="url(#r)"><path fill="#131a44" d="M9.707 8.36a4.6 4.6 0 0 1-1.957.433 4.6 4.6 0 0 1-1.953-.434C2.297 6.711 1.273 2.45.977.49L.863.511s.32 6.715 4.934 8.883q.927.438 1.953.437 1.027 0 1.953-.437C14.32 7.223 14.637.512 14.637.512l-.11-.02c-.293 1.957-1.324 6.219-4.82 7.867m0 0"/></g></g></g><path fill="#131a44" d="M16.75 25.164c-.73 0-1.43-.16-2.09-.473-1.969-.925-3.48-2.808-4.37-5.449a15 15 0 0 1-.755-3.719q-.013-.285.274-.343l6.886-1.2a.3.3 0 0 1 .114 0l6.886 1.2q.287.057.274.343a15 15 0 0 1-.758 3.72c-.887 2.64-2.398 4.527-4.367 5.448a4.9 4.9 0 0 1-2.094.473m-6.531-9.379c.129 1.29.879 6.5 4.719 8.309.574.27 1.175.402 1.812.402a4.2 4.2 0 0 0 1.809-.402c3.843-1.813 4.593-7.02 4.718-8.309l-6.53-1.14Zm0 0"/><path fill="#176d7b" d="m20.5 4.063-3.75-1.778-3.746 1.777-.703 4.653 4.449 2.21 4.453-2.21Zm0 0"/><g mask="url(#s)"><g clip-path="url(#t)" transform="translate(15 3)"><g clip-path="url(#u)"><path fill="#131a44" d="m.836 7.473.082.043c1.68-.11 3.566-1.149 5.195-2.375l-.617-4.078L4.77.719c-.997.64-1.762 1.136-1.762 1.136S3.574 4.79.836 7.473m0 0"/></g></g></g><path fill="#131a44" d="M16.75 11.258a.4.4 0 0 1-.148-.031l-4.45-2.215c-.144-.07-.207-.188-.18-.348l.7-4.652a.32.32 0 0 1 .187-.25l3.746-1.778a.3.3 0 0 1 .286 0l3.75 1.778a.32.32 0 0 1 .187.25l.703 4.652q.037.24-.18.348l-4.453 2.215a.4.4 0 0 1-.148.03m-4.082-2.735 4.086 2.032 4.086-2.032-.64-4.234-3.45-1.637L13.3 4.29Zm0 0"/><path fill="#2ccab1" d="m18.96 16.203-2.214 2.902-2.215-2.902 2.215-4.902.64 1.414ZM21.383 6.02c.508-.051 1.015-.07 1.527-.067 3.336.035 4.797-.93 5.403-1.582q-.055.66-.336 1.262a3.71 3.71 0 0 1-1.82 1.816q-.603.283-1.262.336l-5.82 4.695-2.384-2.625s.934-3.464 4.692-3.835m0 0"/><path fill="#2ccab1" d="m16.797 9.855-2.383 2.625-5.816-4.695a3.7 3.7 0 0 1-1.957-.754 3.7 3.7 0 0 1-1.246-1.683 3.8 3.8 0 0 1-.22-.977c.61.656 2.071 1.617 5.407 1.582q.762-.008 1.523.067a5.2 5.2 0 0 1 2.563.914c1.652 1.144 2.129 2.921 2.129 2.921m0 0"/><path fill="#131a44" d="M16.742 19.438q-.166.001-.265-.133l-2.215-2.903a.31.31 0 0 1-.04-.336l2.22-4.898a.31.31 0 0 1 .304-.195.31.31 0 0 1 .3.195l2.216 4.902a.3.3 0 0 1-.04.336l-2.21 2.899a.31.31 0 0 1-.27.133m-1.832-3.282 1.832 2.403 1.828-2.403-1.828-4.047ZM19.074 12.813a.32.32 0 0 1-.246-.11l-2.383-2.625a.31.31 0 0 1-.074-.308q.328-1.039.996-1.895c.684-.883 1.926-1.98 3.985-2.184q.78-.077 1.558-.066c3.266.031 4.633-.91 5.16-1.48q.164-.172.38-.075.217.094.195.328a4.032 4.032 0 0 1-1.55 2.867 4 4 0 0 1-2.068.844l-5.742 4.633a.3.3 0 0 1-.21.07m-2.008-3.04 2.043 2.254 5.578-4.5a.34.34 0 0 1 .18-.074 3.34 3.34 0 0 0 1.781-.687 3.4 3.4 0 0 0 1.133-1.536c-.91.582-2.414 1.086-4.879 1.06q-.744-.015-1.488.062c-3.027.296-4.105 2.753-4.348 3.421m4.317-3.753"/><path fill="#131a44" d="M14.414 12.813a.3.3 0 0 1-.207-.075L8.465 8.105a4 4 0 0 1-2.067-.843A4 4 0 0 1 5.082 5.46a3.8 3.8 0 0 1-.234-1.063q-.023-.24.195-.332.216-.098.379.079c.523.566 1.89 1.511 5.156 1.476q.784-.007 1.563.066c2.062.204 3.304 1.301 3.984 2.188q.668.856.996 1.895a.31.31 0 0 1-.078.308l-2.383 2.629a.31.31 0 0 1-.246.105M5.707 5.23A3.34 3.34 0 0 0 6.84 6.77a3.4 3.4 0 0 0 1.785.687.34.34 0 0 1 .18.074l5.574 4.496 2.043-2.25c-.235-.675-1.29-3.12-4.344-3.425a15 15 0 0 0-1.488-.063c-2.469.024-3.973-.476-4.883-1.059m0 0"/><g mask="url(#v)"><g clip-path="url(#w)" transform="translate(16 12)"><g clip-path="url(#x)"><path fill="#131a44" d="M2.96 4.203.747 7.105V1.133s.242-.176.64-.414Zm0 0"/></g></g></g><g mask="url(#y)"><g clip-path="url(#z)" transform="translate(18 4)"><g clip-path="url(#A)"><path fill="#131a44" d="M.832 2.934c.606.386 1.035.476 2.066.789 6.235 0 7.426-3.348 7.426-3.348-.605.656-2.066 1.617-5.402 1.582q-.767-.008-1.527.066a5.26 5.26 0 0 0-2.563.91m0 0"/></g></g></g><g mask="url(#B)"><g clip-path="url(#C)" transform="translate(5 4)"><g clip-path="url(#D)"><path fill="#131a44" d="M9.668 2.934c-.602.386-1.035.476-2.063.789C1.371 3.723.175.375.175.375c.61.656 2.071 1.617 5.407 1.582q.762-.008 1.523.066 1.402.119 2.563.91m0 0"/></g></g></g><path fill="#fff" d="M25.55 7.582q.39.389.696.848.303.458.52.968.21.511.316 1.051c.07.36.11.727.11 1.094s-.04.73-.11 1.09a5.5 5.5 0 0 1-.316 1.055q-.216.509-.52.964c-.203.309-.437.59-.695.852a5.6 5.6 0 0 1-.852.695 5.6 5.6 0 0 1-.969.52c-.34.14-.687.246-1.05.316q-.54.11-1.09.11-.556 0-1.094-.11a5.4 5.4 0 0 1-1.05-.316 5.6 5.6 0 0 1-.97-.52 5.6 5.6 0 0 1-.851-.695 5.6 5.6 0 0 1-1.21-1.816 5.666 5.666 0 0 1-.43-2.145q.001-.552.109-1.094c.07-.36.18-.71.32-1.05a5.6 5.6 0 0 1 1.211-1.817c.262-.262.543-.492.852-.7q.457-.303.968-.515c.34-.14.688-.25 1.051-.32a5.7 5.7 0 0 1 2.184 0c.363.07.71.18 1.05.32a5.6 5.6 0 0 1 1.82 1.215m0 0"/><path fill="#131a44" d="M24.168 10.555a1.2 1.2 0 0 1-.156.441q-.116.205-.309.352a1.3 1.3 0 0 1-.414.214 1.3 1.3 0 0 1-.469.043 1.2 1.2 0 0 1-.449-.132 1.2 1.2 0 0 1-.367-.29 1.2 1.2 0 0 1-.234-.406 1.244 1.244 0 0 1 1.16-1.652 2.7 2.7 0 0 0-.594-.242 2.7 2.7 0 0 0-.633-.102 2.5 2.5 0 0 0-.64.047q-.316.06-.614.195a2.787 2.787 0 0 0-1.562 1.926q-.07.315-.063.64.005.324.086.634a2.72 2.72 0 0 0 1.625 1.875q.3.123.617.175c.215.036.426.043.641.028q.322-.026.633-.121a2.9 2.9 0 0 0 1.094-.657 2.75 2.75 0 0 0 .68-1.078q.105-.306.14-.629.03-.316-.012-.64a2.6 2.6 0 0 0-.16-.621m0 0"/><path fill="#fff" d="M15.863 7.582c.262.258.492.543.7.848q.305.458.515.968.21.511.32 1.051a5.7 5.7 0 0 1 0 2.188c-.07.36-.18.71-.32 1.05s-.312.66-.515.97a6 6 0 0 1-.7.847 5.4 5.4 0 0 1-.847.695 5.516 5.516 0 0 1-2.02.836 5.4 5.4 0 0 1-1.094.11q-.55 0-1.093-.11-.54-.105-1.051-.316-.509-.21-.965-.52a5.4 5.4 0 0 1-.852-.695 6 6 0 0 1-.695-.848 5.516 5.516 0 0 1-.836-2.02 5.4 5.4 0 0 1-.11-1.093q0-.552.11-1.094a5.5 5.5 0 0 1 .836-2.02 5.6 5.6 0 0 1 1.547-1.546 5.6 5.6 0 0 1 3.11-.942q.552 0 1.093.106.54.11 1.05.32.511.21.97.516c.304.207.59.437.847.699m0 0"/><g mask="url(#E)"><g clip-path="url(#F)" transform="translate(6 10)"><g clip-path="url(#G)"><path fill="#131a44" d="M21.156.926a5.5 5.5 0 0 1-.43 1.613 5.56 5.56 0 0 1-2.144 2.508c-.477.3-.984.527-1.527.672a5.5 5.5 0 0 1-1.66.191 5.4 5.4 0 0 1-1.641-.305 5.6 5.6 0 0 1-1.477-.773 5.6 5.6 0 0 1-1.53-1.7q-.16.271-.349.524A5.63 5.63 0 0 1 7.734 5.61a5.6 5.6 0 0 1-3.3.114 5.6 5.6 0 0 1-1.528-.672 5.7 5.7 0 0 1-1.261-1.094A5.634 5.634 0 0 1 .333.926a7 7 0 0 0-.032.617c0 .613.097 1.215.297 1.797.195.582.484 1.12.859 1.61q.558.73 1.328 1.245a5.5 5.5 0 0 0 1.66.754 5.55 5.55 0 0 0 3.586-.226 5.604 5.604 0 0 0 2.715-2.363c.309.535.695 1 1.16 1.406s.98.722 1.551.957a5.6 5.6 0 0 0 1.777.41 5.56 5.56 0 0 0 3.473-.938q.767-.512 1.328-1.246a5.56 5.56 0 0 0 1.152-3.406c0-.207-.011-.41-.03-.617m0 0"/></g></g></g><path fill="#131a44" d="M14.484 10.555a1.2 1.2 0 0 1-.156.441 1.2 1.2 0 0 1-.308.352 1.22 1.22 0 0 1-.883.257 1.2 1.2 0 0 1-.45-.132 1.3 1.3 0 0 1-.37-.29 1.4 1.4 0 0 1-.235-.406 1.25 1.25 0 0 1 .313-1.304 1.2 1.2 0 0 1 .394-.254 1.2 1.2 0 0 1 .457-.094 2.72 2.72 0 0 0-1.867-.297q-.319.061-.613.192a2.8 2.8 0 0 0-1.012.777 2.8 2.8 0 0 0-.555 1.152q-.07.316-.062.637a2.735 2.735 0 0 0 .676 1.77q.209.246.472.433.263.188.563.313.3.124.617.171.32.052.64.028.322-.023.633-.121c.207-.067.399-.153.586-.262q.278-.168.508-.395.233-.223.406-.5a2.8 2.8 0 0 0 .414-1.203q.035-.323-.007-.644a3 3 0 0 0-.16-.621m0 0"/><path fill="#131a44" d="M21.586 17.477a5.9 5.9 0 0 1-2.727-.668 5.86 5.86 0 0 1-2.117-1.84 5.9 5.9 0 0 1-1.824 1.68q-.54.32-1.137.519a5.9 5.9 0 0 1-2.46.277 5.7 5.7 0 0 1-1.223-.25 5.8 5.8 0 0 1-1.141-.5 6 6 0 0 1-1.012-.726 5.918 5.918 0 0 1-1.852-3.187 5.8 5.8 0 0 1-.132-1.243q-.001-.628.133-1.238.13-.614.386-1.188.258-.568.625-1.078a6 6 0 0 1 .84-.922q.465-.416 1.012-.726a6 6 0 0 1 1.14-.504 5.9 5.9 0 0 1 2.47-.238q.621.069 1.214.27.599.198 1.137.515a6 6 0 0 1 1.824 1.68 5.7 5.7 0 0 1 1.028-1.114q.286-.245.609-.45a6 6 0 0 1 1.367-.648 6 6 0 0 1 2.25-.277 6 6 0 0 1 1.484.297q.358.124.704.289.338.17.66.375.314.21.605.457c.192.164.371.344.543.531q.252.283.469.594c.144.211.277.426.39.652q.177.336.305.696.134.357.215.726a6 6 0 0 1 .121.75q.036.376.02.758a6.164 6.164 0 0 1-.242 1.496c-.075.242-.16.48-.266.711a6.104 6.104 0 0 1-.785 1.293 5.8 5.8 0 0 1-1.09 1.055q-.303.227-.637.414a6 6 0 0 1-1.402.566 5 5 0 0 1-.746.145q-.376.051-.758.05m-4.844-3.45a.31.31 0 0 1 .285.164q.294.5.68.922.392.424.867.754.47.329 1.004.551a5.4 5.4 0 0 0 2.246.39 5.6 5.6 0 0 0 1.133-.175 5.5 5.5 0 0 0 1.066-.418 5.305 5.305 0 0 0 1.746-1.469 5.23 5.23 0 0 0 .96-2.066q.126-.562.126-1.137a5.3 5.3 0 0 0-.492-2.227 5.3 5.3 0 0 0-.593-.98 5.3 5.3 0 0 0-2.813-1.883 5 5 0 0 0-1.133-.176 5.158 5.158 0 0 0-2.246.39 5 5 0 0 0-1.004.548 5.5 5.5 0 0 0-.867.754q-.387.426-.68.922a.3.3 0 0 1-.12.12.3.3 0 0 1-.165.048.33.33 0 0 1-.168-.047.3.3 0 0 1-.12-.121 5.2 5.2 0 0 0-.68-.922 5.241 5.241 0 0 0-1.871-1.3 5.16 5.16 0 0 0-2.243-.392 5 5 0 0 0-1.133.176 5.335 5.335 0 0 0-2.023 1.055A5.3 5.3 0 0 0 7.12 9.316a5.3 5.3 0 0 0-.371 1.086 5.3 5.3 0 0 0-.125 1.141q.001.575.125 1.137c.086.379.207.738.371 1.086q.242.524.594.98a5.3 5.3 0 0 0 1.742 1.469c.34.176.7.316 1.07.418q.555.146 1.133.176a5.3 5.3 0 0 0 2.242-.391 5.288 5.288 0 0 0 2.55-2.227.32.32 0 0 1 .29-.164m0 0"/><g clip-path="url(#H)"><path fill="#176d7b" d="M22.324 3.648 16.75 6.41l-4.531-2.246-1.043-.516L16.75.887Zm0 0"/></g><g clip-path="url(#I)"><path fill="#131a44" d="M16.75 6.742a.3.3 0 0 1-.145-.035l-5.578-2.762a.31.31 0 0 1-.183-.297c0-.136.062-.238.183-.296L16.605.59a.32.32 0 0 1 .293 0l5.575 2.762c.125.058.183.16.183.296a.3.3 0 0 1-.183.297l-5.575 2.762a.3.3 0 0 1-.148.035m-4.824-3.094L16.75 6.04l4.824-2.39-4.824-2.391Zm0 0"/></g><g mask="url(#J)"><g clip-path="url(#K)" transform="translate(11 2)"><g clip-path="url(#L)"><path fill="#131a44" d="M9.922.953c-.918.52-1.895.895-2.922 1.137-3.543.848-6.426-.442-6.426-.442l-.12.137.76.38L5.75 4.41l5.574-2.762Zm0 0"/></g></g></g><path fill="#131a44" d="M21.84 5.285a.32.32 0 0 1-.235-.098.32.32 0 0 1-.097-.234V3.855a.335.335 0 0 1 .332-.332c.094 0 .172.036.234.098a.32.32 0 0 1 .098.234v1.098a.3.3 0 0 1-.098.234.3.3 0 0 1-.234.098m0 0"/><path fill="#131a44" d="M22.309 5.094a.46.46 0 0 1-.137.332.46.46 0 0 1-.332.136.45.45 0 0 1-.328-.136.44.44 0 0 1-.137-.332c0-.13.043-.239.137-.328q.135-.141.328-.141.195 0 .332.14.136.135.137.329m0 0"/><path fill="#131a44" d="m22.137 5.137-.297-.043-.293.043-.168 1.828.46-.352.466.352Zm0 0"/><g mask="url(#M)"><g clip-path="url(#N)" transform="translate(8 16)"><path fill="#131a44" d="M4.629 3.129a.35.35 0 0 1-.106.258.36.36 0 0 1-.257.105.35.35 0 0 1-.258-.105.35.35 0 0 1-.106-.258q0-.148.106-.254a.34.34 0 0 1 .258-.11c.101 0 .183.036.257.11q.106.106.106.254M12.117 3.316q0 .211-.21.211-.212 0-.212-.21 0-.212.211-.212.21 0 .211.211M14.027 3.348c0 .148-.074.218-.218.218-.149 0-.223-.07-.223-.218q0-.219.223-.22.217.001.218.22M9.95 6.605q-.002.159-.114.27a.35.35 0 0 1-.266.11.35.35 0 0 1-.265-.11.37.37 0 0 1-.114-.27.36.36 0 0 1 .114-.265.35.35 0 0 1 .265-.113q.16.001.266.113a.36.36 0 0 1 .113.265M6.945 5.348c0 .14-.066.207-.207.207q-.205.002-.207-.207 0-.206.207-.207.208 0 .207.207M7.84 4.398a.64.64 0 0 1-.192.461.63.63 0 0 1-.464.192.63.63 0 0 1-.461-.192.63.63 0 0 1-.192-.46c0-.184.063-.336.192-.465a.64.64 0 0 1 .46-.192c.184 0 .337.067.465.192a.64.64 0 0 1 .192.464M6.234 3.25q0 .148-.148.148-.146 0-.145-.148-.001-.146.145-.145.148-.001.148.145M6.945 2.668a.33.33 0 0 1-.105.25.33.33 0 0 1-.25.105.33.33 0 0 1-.25-.105.33.33 0 0 1-.106-.25c0-.098.036-.184.106-.25a.33.33 0 0 1 .25-.106q.148 0 .25.106c.07.066.105.152.105.25M5.086 4.168q.001.229-.227.23-.232-.001-.23-.23-.002-.229.23-.23.228.001.227.23M5.941 5.887q.002.098-.097.097-.1.002-.098-.097-.001-.096.098-.098.098.002.097.098m0 0"/><g clip-path="url(#O)"><path fill="#131a44" d="M1.297 3.625q0 .129-.09.223a.316.316 0 0 1-.441 0 .316.316 0 0 1 0-.442.316.316 0 0 1 .441 0q.09.095.09.219m0 0"/></g><path fill="#131a44" d="M2.387 6.219q-.001.232-.23.23-.235.002-.235-.23 0-.235.234-.235.23 0 .23.235m0 0"/><g clip-path="url(#P)"><path fill="#131a44" d="M3.176 9.223a.38.38 0 0 1-.114.277.38.38 0 0 1-.28.117q-.163 0-.278-.117a.37.37 0 0 1-.117-.277q0-.165.117-.278a.38.38 0 0 1 .277-.117q.164 0 .281.117a.38.38 0 0 1 .114.278m0 0"/></g><path fill="#131a44" d="M3.55 7.504q0 .187-.187.187t-.187-.187q0-.186.187-.184.188-.002.188.184M2.387 7.434q-.002.117-.114.117-.117 0-.117-.117c0-.079.04-.114.117-.114.075 0 .114.035.114.114M1.805 5.148a.335.335 0 1 1-.668.003.335.335 0 0 1 .668-.003M2.781 5.547c0 .129-.062.195-.195.195q-.2 0-.2-.195 0-.2.2-.2c.133 0 .195.067.195.2m0 0"/><g clip-path="url(#Q)"><path fill="#131a44" d="M1.137 1.926q.001.229-.23.23-.23-.001-.231-.23.001-.232.23-.23c.156 0 .23.074.23.23m0 0"/></g><path fill="#131a44" d="M14.504 8.14c0 .16-.082.243-.238.243q-.242-.001-.243-.242 0-.237.243-.239.236.002.238.239M15.262 6.957q-.001.124-.125.125-.124-.001-.125-.125.001-.127.125-.125.124-.001.125.125M15.977 7.89q0 .2-.2.2-.199 0-.199-.2 0-.199.2-.199.199 0 .199.2M16.145 4.61a.43.43 0 0 1-.13.312.43.43 0 0 1-.312.129.43.43 0 0 1-.312-.13.43.43 0 0 1-.13-.312q0-.181.13-.312a.43.43 0 0 1 .312-.129q.183 0 .313.129a.43.43 0 0 1 .129.312M16.797 2.895q0 .128-.129.128t-.129-.128.129-.13.129.13m0 0"/><g clip-path="url(#R)"><path fill="#131a44" d="M17.484 1.063q0 .21-.21.21-.216 0-.215-.21-.001-.216.214-.215.211-.001.211.215m0 0"/></g><g clip-path="url(#S)"><path fill="#131a44" d="M17.484 4.61c0 .14-.07.214-.21.214q-.216-.002-.215-.215-.001-.21.214-.21.211 0 .211.21m0 0"/></g></g></g></svg>